<svg width="64" height="64" viewBox="0 0 24 24" fill="none" xmlns="http://www.w3.org/2000/svg">
  <circle cx="12" cy="12" r="3" fill="#607D8B"/>
  <path d="M19.4 15a1.65 1.65 0 00.33 1.82l.06.06a2 2 0 01-2.83 2.83l-.06-.06a1.65 1.65 0 00-1.82-.33 1.65 1.65 0 00-1 1.51V21a2 2 0 01-4 0v-.09a1.65 1.65 0 00-1-1.51 1.65 1.65 0 00-1.82.33l-.06.06a2 2 0 01-2.83-2.83l.06-.06a1.65 1.65 0 00.33-1.82 1.65 1.65 0 00-1.51-1H3a2 2 0 010-4h.09a1.65 1.65 0 001.51-1 1.65 1.65 0 00-.33-1.82l-.06-.06a2 2 0 012.83-2.83l.06.06a1.65 1.65 0 001.82.33h.09a1.65 1.65 0 001-1.51V3a2 2 0 014 0v.09a1.65 1.65 0 001 1.51h.09a1.65 1.65 0 001.82-.33l.06-.06a2 2 0 012.83 2.83l-.06.06a1.65 1.65 0 00-.33 1.82v.09a1.65 1.65 0 001.51 1H21a2 2 0 010 4h-.09a1.65 1.65 0 00-1.51 1z" fill="#90A4AE"/>
</svg>
